<svg width="32" height="32" viewBox="0 0 32 32" fill="none" xmlns="http://www.w3.org/2000/svg">
<path d="M16 0C20.2435 0 24.3131 1.4449 27.3137 4.01685C30.3143 6.5888 32 10.0771 32 13.7144C32 20.2676 26.84 26.2996 16.7147 31.822C16.501 31.9382 16.2531 32 16 32C15.7469 32 15.499 31.9382 15.2853 31.822C5.16 26.2996 0 20.2676 0 13.7144C0 10.0771 1.68571 6.5888 4.68629 4.01685C7.68687 1.4449 11.7565 0 16 0ZM16 9.14293C14.5855 9.14293 13.229 9.62456 12.2288 10.4819C11.2286 11.3392 10.6667 12.502 10.6667 13.7144C10.6667 14.9268 11.2286 16.0896 12.2288 16.9469C13.229 17.8042 14.5855 18.2859 16 18.2859C17.4145 18.2859 18.771 17.8042 19.7712 16.9469C20.7714 16.0896 21.3333 14.9268 21.3333 13.7144C21.3333 12.502 20.7714 11.3392 19.7712 10.4819C18.771 9.62456 17.4145 9.14293 16 9.14293Z" fill="#FFB121"/>
</svg>
