<svg width="70" height="70" viewBox="0 0 70 70" fill="none" xmlns="http://www.w3.org/2000/svg">
<path d="M34.9906 17.0416C25.0528 17.0416 17.0325 25.062 17.0325 35C17.0325 44.938 25.0528 52.9584 34.9906 52.9584C44.9284 52.9584 52.9486 44.938 52.9486 35C52.9486 25.062 44.9284 17.0416 34.9906 17.0416ZM34.9906 46.6716C28.5639 46.6716 23.3192 41.4268 23.3192 35C23.3192 28.5732 28.5639 23.3284 34.9906 23.3284C41.4173 23.3284 46.662 28.5732 46.662 35C46.662 41.4268 41.4173 46.6716 34.9906 46.6716ZM53.6841 12.1208C51.3639 12.1208 49.4901 13.9946 49.4901 16.3149C49.4901 18.6352 51.3639 20.509 53.6841 20.509C56.0044 20.509 57.8781 18.6439 57.8781 16.3149C57.8788 15.7639 57.7708 15.2182 57.5603 14.7091C57.3498 14.1999 57.0409 13.7373 56.6513 13.3477C56.2617 12.9581 55.7991 12.6492 55.2899 12.4386C54.7808 12.2281 54.2351 12.1201 53.6841 12.1208ZM69.9961 35C69.9961 30.1667 70.0399 25.3772 69.7684 20.5527C69.497 14.949 68.2187 9.97559 64.121 5.87782C60.0145 1.7713 55.05 0.501691 49.4463 0.230258C44.6132 -0.0411753 39.8238 0.0026044 34.9993 0.0026044C30.1662 0.0026044 25.3768 -0.0411753 20.5524 0.230258C14.9487 0.501691 9.97541 1.78005 5.87771 5.87782C1.77127 9.98435 0.501682 14.949 0.230254 20.5527C-0.0411745 25.386 0.00260435 30.1755 0.00260435 35C0.00260435 39.8245 -0.0411745 44.6228 0.230254 49.4473C0.501682 55.051 1.78002 60.0244 5.87771 64.1222C9.98416 68.2287 14.9487 69.4983 20.5524 69.7697C25.3855 70.0412 30.1749 69.9974 34.9993 69.9974C39.8325 69.9974 44.6219 70.0412 49.4463 69.7697C55.05 69.4983 60.0233 68.2199 64.121 64.1222C68.2274 60.0157 69.497 55.051 69.7684 49.4473C70.0486 44.6228 69.9961 39.8333 69.9961 35ZM62.291 55.6465C61.6519 57.24 60.8814 58.4308 59.6468 59.6567C58.4122 60.8912 57.2302 61.6618 55.6367 62.3009C51.0311 64.1309 40.0952 63.7194 34.9906 63.7194C29.886 63.7194 18.9413 64.1309 14.3358 62.3097C12.7422 61.6705 11.5514 60.9 10.3256 59.6654C9.09108 58.4308 8.32057 57.2488 7.6814 55.6552C5.8602 51.0408 6.27172 40.1047 6.27172 35C6.27172 29.8953 5.8602 18.9504 7.6814 14.3448C8.32057 12.7512 9.09108 11.5604 10.3256 10.3346C11.5602 9.10876 12.7422 8.32948 14.3358 7.6903C18.9413 5.86907 29.886 6.2806 34.9906 6.2806C40.0952 6.2806 51.0399 5.86907 55.6454 7.6903C57.239 8.32948 58.4297 9.1 59.6556 10.3346C60.8901 11.5692 61.6606 12.7512 62.2998 14.3448C64.121 18.9504 63.7095 29.8953 63.7095 35C63.7095 40.1047 64.121 51.0408 62.291 55.6465Z" fill="#FFB121"/>
</svg>
