<svg width="70" height="71" viewBox="0 0 70 71" fill="none" xmlns="http://www.w3.org/2000/svg">
<path d="M64.8151 0.430664H5.16736C2.31486 0.430664 0 2.69108 0 5.47455V65.38C0 68.1673 2.31486 70.4307 5.16736 70.4307H64.8151C67.6696 70.4307 70 68.1673 70 65.38V5.47455C70 2.69108 67.6696 0.430664 64.8151 0.430664ZM20.7608 60.0804H10.3736V26.6758H20.7608V60.0804ZM15.5672 22.1083C14.7766 22.1083 13.9937 21.9525 13.2633 21.6498C12.5329 21.3472 11.8693 20.9035 11.3104 20.3443C10.7516 19.785 10.3084 19.1212 10.0061 18.3906C9.70394 17.66 9.54865 16.877 9.54917 16.0864C9.54917 14.4904 10.1832 12.9598 11.3117 11.8313C12.4402 10.7028 13.9708 10.0688 15.5667 10.0688C17.1627 10.0688 18.6933 10.7028 19.8218 11.8313C20.9503 12.9598 21.5843 14.4904 21.5843 16.0864C21.5843 17.6826 20.9505 19.2136 19.8222 20.3428C18.694 21.472 17.1635 22.107 15.5672 22.1083ZM59.6458 60.0804H49.2751V43.8365C49.2751 39.9612 49.1993 34.9786 43.8783 34.9786C38.4747 34.9786 37.6512 39.199 37.6512 43.5555V60.0814H27.2728V26.6758H37.2332V31.2375H37.3751C38.7615 28.6125 42.1487 25.8426 47.2004 25.8426C57.7062 25.8426 59.6468 32.759 59.6468 41.7569V60.0804H59.6458Z" fill="#FFB121"/>
</svg>
