<svg width="255" height="245" viewBox="0 0 255 245" fill="none" xmlns="http://www.w3.org/2000/svg">
<g filter="url(#filter0_d)">
<circle cx="127.5" cy="113.5" r="95.5" fill="#FFFEFB"/>
</g>
<path d="M74.84 105.52C74.84 105.653 74.7867 105.773 74.68 105.88C74.6 105.96 74.4933 106 74.36 106H60.76C60.6267 106 60.56 106.067 60.56 106.2V113.68C60.56 113.813 60.6267 113.88 60.76 113.88H69.92C70.0533 113.88 70.16 113.933 70.24 114.04C70.3467 114.12 70.4 114.227 70.4 114.36V117.4C70.4 117.533 70.3467 117.653 70.24 117.76C70.16 117.84 70.0533 117.88 69.92 117.88H60.76C60.6267 117.88 60.56 117.947 60.56 118.08V129.52C60.56 129.653 60.5067 129.773 60.4 129.88C60.32 129.96 60.2133 130 60.08 130H56.4C56.2667 130 56.1467 129.96 56.04 129.88C55.96 129.773 55.92 129.653 55.92 129.52V102.48C55.92 102.347 55.96 102.24 56.04 102.16C56.1467 102.053 56.2667 102 56.4 102H74.36C74.4933 102 74.6 102.053 74.68 102.16C74.7867 102.24 74.84 102.347 74.84 102.48V105.52ZM86.1003 109.24C87.7803 109.24 89.2603 109.533 90.5403 110.12C91.8203 110.707 92.807 111.52 93.5003 112.56C94.1936 113.573 94.5403 114.733 94.5403 116.04V129.52C94.5403 129.653 94.487 129.773 94.3803 129.88C94.3003 129.96 94.1936 130 94.0603 130H90.3803C90.247 130 90.127 129.96 90.0203 129.88C89.9403 129.773 89.9003 129.653 89.9003 129.52V128.24C89.9003 128.16 89.8736 128.12 89.8203 128.12C89.767 128.093 89.7136 128.107 89.6603 128.16C88.3536 129.6 86.4603 130.32 83.9803 130.32C81.9803 130.32 80.327 129.813 79.0203 128.8C77.7403 127.787 77.1003 126.28 77.1003 124.28C77.1003 122.2 77.8203 120.587 79.2603 119.44C80.727 118.267 82.7803 117.68 85.4203 117.68H89.7003C89.8336 117.68 89.9003 117.613 89.9003 117.48V116.52C89.9003 115.48 89.5936 114.68 88.9803 114.12C88.367 113.533 87.447 113.24 86.2203 113.24C85.207 113.24 84.3803 113.427 83.7403 113.8C83.127 114.147 82.7403 114.64 82.5803 115.28C82.5003 115.6 82.3136 115.733 82.0203 115.68L78.1403 115.2C78.007 115.173 77.887 115.133 77.7803 115.08C77.7003 115 77.6736 114.907 77.7003 114.8C77.9136 113.173 78.7803 111.84 80.3003 110.8C81.847 109.76 83.7803 109.24 86.1003 109.24ZM85.1403 126.64C86.447 126.64 87.567 126.293 88.5003 125.6C89.4336 124.907 89.9003 124.027 89.9003 122.96V121.08C89.9003 120.947 89.8336 120.88 89.7003 120.88H86.3403C84.927 120.88 83.807 121.147 82.9803 121.68C82.1803 122.213 81.7803 122.973 81.7803 123.96C81.7803 124.813 82.087 125.48 82.7003 125.96C83.3403 126.413 84.1536 126.64 85.1403 126.64ZM108.799 130.24C107.119 130.24 105.639 130 104.359 129.52C103.105 129.013 102.132 128.333 101.439 127.48C100.745 126.6 100.399 125.627 100.399 124.56V124.2C100.399 124.067 100.439 123.96 100.519 123.88C100.625 123.773 100.745 123.72 100.879 123.72H104.399C104.532 123.72 104.639 123.773 104.719 123.88C104.825 123.96 104.879 124.067 104.879 124.2V124.28C104.879 124.947 105.239 125.533 105.959 126.04C106.705 126.52 107.639 126.76 108.759 126.76C109.825 126.76 110.692 126.547 111.359 126.12C112.025 125.667 112.359 125.107 112.359 124.44C112.359 123.827 112.079 123.373 111.519 123.08C110.985 122.76 110.105 122.427 108.879 122.08L107.359 121.6C105.999 121.2 104.852 120.773 103.919 120.32C102.985 119.867 102.199 119.253 101.559 118.48C100.919 117.68 100.599 116.667 100.599 115.44C100.599 113.573 101.332 112.093 102.799 111C104.265 109.88 106.199 109.32 108.599 109.32C110.225 109.32 111.652 109.587 112.879 110.12C114.105 110.627 115.052 111.347 115.719 112.28C116.385 113.187 116.719 114.227 116.719 115.4C116.719 115.533 116.665 115.653 116.559 115.76C116.479 115.84 116.372 115.88 116.239 115.88H112.839C112.705 115.88 112.585 115.84 112.479 115.76C112.399 115.653 112.359 115.533 112.359 115.4C112.359 114.707 112.012 114.133 111.319 113.68C110.652 113.2 109.732 112.96 108.559 112.96C107.519 112.96 106.665 113.16 105.999 113.56C105.359 113.933 105.039 114.467 105.039 115.16C105.039 115.8 105.345 116.293 105.959 116.64C106.599 116.96 107.652 117.32 109.119 117.72L109.999 117.96C111.412 118.387 112.599 118.827 113.559 119.28C114.519 119.707 115.332 120.32 115.999 121.12C116.665 121.893 116.999 122.907 116.999 124.16C116.999 126.053 116.252 127.547 114.759 128.64C113.265 129.707 111.279 130.24 108.799 130.24ZM132.725 109.24C134.885 109.24 136.605 109.88 137.885 111.16C139.192 112.44 139.845 114.187 139.845 116.4V129.52C139.845 129.653 139.792 129.773 139.685 129.88C139.605 129.96 139.499 130 139.365 130H135.685C135.552 130 135.432 129.96 135.325 129.88C135.245 129.773 135.205 129.653 135.205 129.52V117.36C135.205 116.133 134.859 115.147 134.165 114.4C133.472 113.627 132.552 113.24 131.405 113.24C130.259 113.24 129.325 113.613 128.605 114.36C127.912 115.107 127.565 116.093 127.565 117.32V129.52C127.565 129.653 127.512 129.773 127.405 129.88C127.325 129.96 127.219 130 127.085 130H123.405C123.272 130 123.152 129.96 123.045 129.88C122.965 129.773 122.925 129.653 122.925 129.52V102.48C122.925 102.347 122.965 102.24 123.045 102.16C123.152 102.053 123.272 102 123.405 102H127.085C127.219 102 127.325 102.053 127.405 102.16C127.512 102.24 127.565 102.347 127.565 102.48V111.32C127.565 111.4 127.592 111.453 127.645 111.48C127.699 111.507 127.739 111.48 127.765 111.4C128.859 109.96 130.512 109.24 132.725 109.24ZM149.323 106.76C148.496 106.76 147.816 106.493 147.283 105.96C146.75 105.427 146.483 104.747 146.483 103.92C146.483 103.093 146.75 102.413 147.283 101.88C147.816 101.347 148.496 101.08 149.323 101.08C150.15 101.08 150.83 101.347 151.363 101.88C151.896 102.413 152.163 103.093 152.163 103.92C152.163 104.747 151.896 105.427 151.363 105.96C150.83 106.493 150.15 106.76 149.323 106.76ZM147.403 130C147.27 130 147.15 129.96 147.043 129.88C146.963 129.773 146.923 129.653 146.923 129.52V110C146.923 109.867 146.963 109.76 147.043 109.68C147.15 109.573 147.27 109.52 147.403 109.52H151.083C151.216 109.52 151.323 109.573 151.403 109.68C151.51 109.76 151.563 109.867 151.563 110V129.52C151.563 129.653 151.51 129.773 151.403 129.88C151.323 129.96 151.216 130 151.083 130H147.403ZM191.785 130.32C189.678 130.32 187.865 129.787 186.345 128.72C184.852 127.653 183.798 126.173 183.185 124.28C182.732 122.84 182.505 121.32 182.505 119.72C182.505 118.013 182.718 116.493 183.145 115.16C183.758 113.293 184.825 111.84 186.345 110.8C187.865 109.76 189.692 109.24 191.825 109.24C193.852 109.24 195.598 109.76 197.065 110.8C198.558 111.84 199.612 113.28 200.225 115.12C200.705 116.4 200.945 117.92 200.945 119.68C200.945 121.36 200.718 122.88 200.265 124.24C199.652 126.133 198.598 127.627 197.105 128.72C195.612 129.787 193.838 130.32 191.785 130.32ZM191.785 126.32C192.772 126.32 193.612 126.04 194.305 125.48C195.025 124.92 195.545 124.133 195.865 123.12C196.132 122.24 196.265 121.12 196.265 119.76C196.265 118.32 196.132 117.2 195.865 116.4C195.572 115.387 195.065 114.613 194.345 114.08C193.625 113.52 192.745 113.24 191.705 113.24C190.718 113.24 189.865 113.52 189.145 114.08C188.425 114.613 187.905 115.387 187.585 116.4C187.318 117.333 187.185 118.453 187.185 119.76C187.185 121.067 187.318 122.187 187.585 123.12C187.878 124.133 188.385 124.92 189.105 125.48C189.852 126.04 190.745 126.32 191.785 126.32Z" fill="black"/>
<path d="M167.558 130.32C165.452 130.32 163.638 129.787 162.118 128.72C160.625 127.653 159.572 126.173 158.958 124.28C158.505 122.84 158.278 121.32 158.278 119.72C158.278 118.013 158.492 116.493 158.918 115.16C159.532 113.293 160.598 111.84 162.118 110.8C163.638 109.76 165.465 109.24 167.598 109.24C169.625 109.24 171.372 109.76 172.838 110.8C174.332 111.84 175.385 113.28 175.998 115.12C176.478 116.4 176.718 117.92 176.718 119.68C176.718 121.36 176.492 122.88 176.038 124.24C175.425 126.133 174.372 127.627 172.878 128.72C171.385 129.787 169.612 130.32 167.558 130.32ZM167.558 126.32C168.545 126.32 169.385 126.04 170.078 125.48C170.798 124.92 171.318 124.133 171.638 123.12C171.905 122.24 172.038 121.12 172.038 119.76C172.038 118.32 171.905 117.2 171.638 116.4C171.345 115.387 170.838 114.613 170.118 114.08C169.398 113.52 168.518 113.24 167.478 113.24C166.492 113.24 165.638 113.52 164.918 114.08C164.198 114.613 163.678 115.387 163.358 116.4C163.092 117.333 162.958 118.453 162.958 119.76C162.958 121.067 163.092 122.187 163.358 123.12C163.652 124.133 164.158 124.92 164.878 125.48C165.625 126.04 166.518 126.32 167.558 126.32Z" fill="#FFB121"/>
<defs>
<filter id="filter0_d" x="0" y="-10" width="255" height="255" filterUnits="userSpaceOnUse" color-interpolation-filters="sRGB">
<feFlood flood-opacity="0" result="BackgroundImageFix"/>
<feColorMatrix in="SourceAlpha" type="matrix" values="0 0 0 0 0 0 0 0 0 0 0 0 0 0 0 0 0 0 127 0" result="hardAlpha"/>
<feOffset dy="4"/>
<feGaussianBlur stdDeviation="16"/>
<feColorMatrix type="matrix" values="0 0 0 0 0 0 0 0 0 0 0 0 0 0 0 0 0 0 0.25 0"/>
<feBlend mode="normal" in2="BackgroundImageFix" result="effect1_dropShadow"/>
<feBlend mode="normal" in="SourceGraphic" in2="effect1_dropShadow" result="shape"/>
</filter>
</defs>
</svg>
