<svg width="31" height="21" viewBox="0 0 31 21" fill="none" xmlns="http://www.w3.org/2000/svg">
<path d="M30.4762 18.2857V4.57143C30.4762 4.57143 16.6095 14.2476 15.261 14.7497C13.9352 14.2705 0 4.57143 0 4.57143V18.2857C0 20.1905 0.40381 20.5714 2.28571 20.5714H28.1905C30.1173 20.5714 30.4762 20.237 30.4762 18.2857ZM30.4541 1.88267C30.4541 0.495238 30.0495 0 28.1905 0H2.28571C0.373333 0 0 0.594286 0 1.98095L0.0228571 2.19429C0.0228571 2.19429 13.7897 11.6724 15.261 12.1905C16.8152 11.5886 30.4762 1.98095 30.4762 1.98095L30.4541 1.88267Z" fill="#FFB121"/>
</svg>
