<svg width="32" height="32" viewBox="0 0 32 32" fill="none" xmlns="http://www.w3.org/2000/svg">
<path d="M8.49135 0.170329C9.63821 -0.0936048 10.8689 -0.0497565 11.9786 0.294575C13.0882 0.638906 14.0099 1.26295 14.5902 2.06282L14.7867 2.36089L16.5192 5.30365C17.0457 6.19685 17.2166 7.1885 17.0107 8.15526C16.8047 9.12202 16.2309 10.0212 15.3607 10.7411L15.0148 11.0051L12.2785 12.9516C11.7858 13.3077 12.1554 14.6861 13.9402 17.0427C15.5416 19.1632 16.8494 20.1535 17.4889 20.2075H17.6016L17.7405 20.1875L23.1133 18.9332C23.8354 18.7641 24.606 18.7574 25.3329 18.9139C26.0599 19.0703 26.7124 19.3833 27.2124 19.8154L27.4535 20.0455L31.0075 23.8064C31.7048 24.5434 32.0526 25.4396 31.9935 26.3476C31.9345 27.2556 31.4721 28.1211 30.6825 28.8017L30.3627 29.0538L28.9396 30.082C27.664 31.0041 26.0683 31.6272 24.3423 31.8772C22.6162 32.1272 20.8324 31.9937 19.203 31.4924C14.1315 29.932 9.52399 26.3671 5.33842 20.8337C1.14499 15.2862 -0.597905 10.451 0.1805 6.30991C0.416279 5.0579 1.09199 3.87801 2.13584 2.89562C3.17968 1.91322 4.55268 1.16501 6.10896 0.730473L6.61479 0.602441L8.49135 0.170329Z" fill="#FFB121"/>
</svg>
