<svg width="87" height="65" viewBox="0 0 87 65" fill="none" xmlns="http://www.w3.org/2000/svg">
<path d="M21.4254 63.7658L0.525879 28.3912C0.525879 28.3912 3.82581 34.5852 7.44002 34.3099C11.0542 34.0346 13.4113 31.8323 13.4113 31.8323C13.4113 31.8323 14.197 34.5852 14.197 35.5487C14.197 36.5122 12.6256 39.5404 12.6256 39.8157C12.6256 40.091 19.5398 46.1473 21.1112 46.8355C22.6825 47.5237 26.1396 47.9367 26.7682 46.6979C27.3967 45.4591 27.2396 32.6582 27.2396 32.6582C27.2396 32.6582 33.6823 39.9533 36.5108 41.3298C39.3393 42.7062 42.0107 42.8438 42.4821 41.605C42.9536 40.3662 44.2107 21.6466 43.2678 21.2337C42.325 20.8208 35.4109 18.8937 35.4109 18.8937C35.4109 18.8937 37.2965 14.7644 38.3965 13.9386C39.4965 13.1127 38.7108 7.05635 38.7108 4.57875C38.7108 2.10115 38.3965 1 38.3965 1C38.3965 1 41.3822 11.1857 43.7393 12.1492C46.0963 13.1127 49.3963 14.6268 49.3963 14.6268C49.3963 14.6268 46.0964 19.0314 45.9392 19.4443C45.7821 19.8573 45.9392 22.6101 45.9392 22.6101C45.9392 22.6101 51.1248 32.5205 53.4819 35.1358C55.839 37.751 56.6247 38.8522 57.7247 38.7145C58.8246 38.5769 61.3389 38.7145 62.9103 31.2817C64.4817 23.8489 64.4817 22.7478 64.4817 22.7478C64.4817 22.7478 67.4673 31.9699 68.4102 33.0711C69.353 34.1722 72.4958 37.4757 74.0672 37.4757C75.6386 37.4757 80.667 29.3547 81.1385 27.5653C81.6099 25.776 78.9385 24.6748 78.4671 23.7113C77.9957 22.7478 76.8957 20.9584 76.8957 20.2702C76.8957 19.582 76.8957 20.2702 76.8957 20.2702C76.8957 20.2702 79.2528 19.3067 81.2956 18.2055C83.3384 17.1044 84.1241 16.5538 84.4384 15.0397C84.7526 13.5256 85.0669 10.6351 85.0669 10.6351L86.4812 11.8739L85.6955 51.5154C85.6955 51.5154 82.2384 48.6249 79.4099 47.6614C76.5814 46.6979 69.6673 46.6979 67.3102 46.6979C64.9531 46.6979 56.939 47.5237 53.1676 48.212C49.3962 48.9002 36.668 53.1672 36.668 53.1672L28.1824 57.0212C27.9762 56.6599 23.884 59.9519 23.4683 60.5999C23.124 61.1366 21.4254 63.7658 21.4254 63.7658V63.7658Z" fill="#FFB121" stroke="#FFB121" stroke-width="0.264583"/>
</svg>
